<svg width="579" height="578" viewBox="0 0 579 578" fill="none" xmlns="http://www.w3.org/2000/svg">
<g filter="url(#filter0_d)">
<path d="M288 566C212.944 566 140.962 536.184 87.8888 483.111C34.816 430.038 5 358.056 5 283C5 207.944 34.816 135.962 87.8888 82.8888C140.962 29.816 212.944 -8.95037e-07 288 0L288 16.1666C217.231 16.1666 149.361 44.2793 99.3203 94.3203C49.2793 144.361 21.1666 212.231 21.1666 283C21.1666 353.769 49.2793 421.639 99.3203 471.68C149.361 521.721 217.231 549.833 288 549.833L288 566Z" fill="#141414"/>
<path d="M290.146 0.0741882C365.202 0.359082 437.07 30.4481 489.941 83.7219C542.812 136.996 572.355 209.091 572.07 284.146C571.785 359.202 541.696 431.071 488.422 483.941C435.148 536.812 363.054 566.355 287.998 566.07L288.059 549.904C358.827 550.172 426.804 522.317 477.034 472.467C527.265 422.616 555.635 354.853 555.904 284.085C556.172 213.317 528.317 145.341 478.467 95.11C428.616 44.8794 360.853 16.5093 290.085 16.2407L290.146 0.0741882Z" fill="#E9103A"/>
<path d="M288 28C355.63 28 420.49 54.866 468.312 102.688C516.134 150.51 543 215.37 543 283C543 350.63 516.134 415.49 468.312 463.312C420.49 511.134 355.63 538 288 538L288 523.433C351.767 523.433 412.922 498.102 458.012 453.012C503.102 407.922 528.433 346.767 528.433 283C528.433 219.233 503.102 158.078 458.012 112.988C412.922 67.8983 351.767 42.5671 288 42.5671L288 28Z" fill="#141414"/>
<path d="M286.066 537.933C218.436 537.676 153.679 510.564 106.039 462.561C58.3987 414.559 31.7791 349.597 32.0358 281.967C32.2925 214.337 59.4045 149.58 107.407 101.94C155.41 54.2997 220.372 27.6801 288.002 27.9368L287.947 42.5038C224.18 42.2618 162.929 67.3607 117.669 112.279C72.408 157.198 46.8448 218.256 46.6027 282.022C46.3607 345.789 71.4596 407.039 116.378 452.3C161.297 497.561 222.355 523.124 286.121 523.366L286.066 537.933Z" fill="#E9103A"/>
</g>
<defs>
<filter id="filter0_d" x="0" y="0" width="578.144" height="577.144" filterUnits="userSpaceOnUse" color-interpolation-filters="sRGB">
<feFlood flood-opacity="0" result="BackgroundImageFix"/>
<feColorMatrix in="SourceAlpha" type="matrix" values="0 0 0 0 0 0 0 0 0 0 0 0 0 0 0 0 0 0 127 0" result="hardAlpha"/>
<feOffset dy="5"/>
<feGaussianBlur stdDeviation="2.5"/>
<feComposite in2="hardAlpha" operator="out"/>
<feColorMatrix type="matrix" values="0 0 0 0 0 0 0 0 0 0 0 0 0 0 0 0 0 0 0.35 0"/>
<feBlend mode="normal" in2="BackgroundImageFix" result="effect1_dropShadow"/>
<feBlend mode="normal" in="SourceGraphic" in2="effect1_dropShadow" result="shape"/>
</filter>
</defs>
</svg>
